<?xml version="1.0" standalone="no"?>
<!DOCTYPE svg PUBLIC "-//W3C//DTD SVG 20010904//EN"
 "http://www.w3.org/TR/2001/REC-SVG-20010904/DTD/svg10.dtd">
<svg version="1.0" xmlns="http://www.w3.org/2000/svg"
 width="1604.000000pt" height="1604.000000pt" viewBox="0 0 1604.000000 1604.000000"
 preserveAspectRatio="xMidYMid meet">
<metadata>
Created by potrace 1.14, written by Peter Selinger 2001-2017
</metadata>
<g transform="translate(0.000000,1604.000000) scale(0.100000,-0.100000)"
fill="#000000" stroke="none">
<path d="M1970 16029 c-19 -4 -51 -11 -70 -14 -67 -11 -219 -54 -317 -91 -91
-34 -293 -127 -338 -156 -11 -7 -56 -35 -100 -63 -181 -113 -397 -308 -530
-479 -16 -21 -35 -44 -41 -50 -33 -35 -160 -243 -212 -348 -93 -187 -173 -425
-197 -588 -3 -20 -7 -46 -10 -59 -2 -13 -8 -49 -12 -80 -10 -71 -11 -11995 -1
-12076 12 -95 17 -126 29 -185 118 -589 454 -1087 959 -1425 93 -62 283 -164
365 -195 11 -5 36 -15 55 -23 86 -36 306 -99 395 -112 72 -10 100 -15 130 -22
43 -11 11810 -14 11865 -4 25 5 65 12 90 15 371 50 767 225 1074 475 81 66
263 245 303 299 15 20 36 46 47 57 45 49 182 269 235 379 91 187 178 445 196
582 6 50 14 95 22 129 4 17 9 2723 10 6015 2 6515 6 6073 -53 6330 -56 244
-170 511 -307 718 -39 59 -73 109 -76 112 -3 3 -22 25 -41 50 -43 56 -98 118
-170 190 -304 304 -694 516 -1115 604 l-120 25 -6015 0 c-3308 -1 -6031 -5
-6050 -10z"/>
</g>
</svg>
